<svg xmlns="http://www.w3.org/2000/svg" version="1.1" xmlns:xlink="http://www.w3.org/1999/xlink" xmlns:svgjs="http://svgjs.dev/svgjs" width="1500" height="1500" viewBox="0 0 1500 1500"><rect width="1500" height="1500" fill="#000000"></rect><g transform="matrix(0.6666666666666666,0,0,0.6666666666666666,249.39393939393938,438.5856950067477)"><svg viewBox="0 0 396 247" data-background-color="#ffffff" preserveAspectRatio="xMidYMid meet" height="935" width="1500" xmlns="http://www.w3.org/2000/svg" xmlns:xlink="http://www.w3.org/1999/xlink"><g id="tight-bounds" transform="matrix(1,0,0,1,0.2400000000000091,-0.09999999999999432)"><svg viewBox="0 0 395.52 247.2" height="247.2" width="395.52"><g><svg></svg></g><g><svg viewBox="0 0 395.52 247.2" height="247.2" width="395.52"><mask id="bfeac2e0-d131-446e-98b5-4add0f85e46b"><rect width="640" height="400" fill="white"></rect><rect width="348.05760000000004" height="64.17622694355912" fill="black" y="91.51188652822043" x="23.731199999999973" id="transform-me"></rect></mask><g transform="matrix(1,0,0,1,39.55199999999999,101.80326061997704)"><svg viewBox="0 0 316.416 43.59347876004592" height="43.59347876004592" width="316.416"><g><svg viewBox="0 0 316.416 43.59347876004592" height="43.59347876004592" width="316.416"><g><svg viewBox="0 0 316.416 43.59347876004592" height="43.59347876004592" width="316.416"><g id="textblocktransform"><svg viewBox="0 0 316.416 43.59347876004592" height="43.59347876004592" width="316.416" id="textblock"><g><svg viewBox="0 0 316.416 43.59347876004592" height="43.59347876004592" width="316.416"><g transform="matrix(1,0,0,1,0,0)"><svg width="316.416" viewBox="3.7 -35.5 261.28000000000003 36" height="43.59347876004592" data-palette-color="#00a1da"><path d="M28 0L4.9 0Q4.4 0 4.05-0.35 3.7-0.7 3.7-1.25L3.7-1.25 3.7-33.75Q3.7-34.3 4.05-34.65 4.4-35 4.9-35L4.9-35 27.6-35Q28.15-35 28.5-34.65 28.85-34.3 28.85-33.75L28.85-33.75 28.85-29.75Q28.85-29.2 28.5-28.85 28.15-28.5 27.6-28.5L27.6-28.5 11.4-28.5 11.4-20.7 26.5-20.7Q27.05-20.7 27.4-20.35 27.75-20 27.75-19.45L27.75-19.45 27.75-15.75Q27.75-15.25 27.4-14.88 27.05-14.5 26.5-14.5L26.5-14.5 11.4-14.5 11.4-6.5 28-6.5Q28.55-6.5 28.9-6.15 29.25-5.8 29.25-5.25L29.25-5.25 29.25-1.25Q29.25-0.7 28.9-0.35 28.55 0 28 0L28 0ZM51.9 0L45.35 0Q44.55 0 44.05-0.43 43.55-0.85 43.35-1.45L43.35-1.45 32.9-33.5Q32.85-33.75 32.85-33.95L32.85-33.95Q32.85-34.35 33.15-34.68 33.45-35 33.9-35L33.9-35 39.2-35Q39.95-35 40.37-34.58 40.8-34.15 40.9-33.8L40.9-33.8 48.65-9.35 56.4-33.8Q56.5-34.15 56.9-34.58 57.3-35 58.1-35L58.1-35 63.4-35Q63.8-35 64.12-34.68 64.45-34.35 64.45-33.95L64.45-33.95Q64.45-33.75 64.35-33.5L64.35-33.5 53.9-1.45Q53.7-0.85 53.22-0.43 52.75 0 51.9 0L51.9 0ZM83.29 0.5L83.29 0.5Q78.74 0.5 75.44-1 72.14-2.5 70.29-5.53 68.44-8.55 68.29-13.15L68.29-13.15Q68.24-15.3 68.24-17.43 68.24-19.55 68.29-21.75L68.29-21.75Q68.44-26.25 70.32-29.33 72.19-32.4 75.52-33.95 78.84-35.5 83.29-35.5L83.29-35.5Q87.69-35.5 91.02-33.95 94.34-32.4 96.24-29.33 98.14-26.25 98.29-21.75L98.29-21.75Q98.39-19.55 98.39-17.43 98.39-15.3 98.29-13.15L98.29-13.15Q98.14-8.55 96.27-5.53 94.39-2.5 91.09-1 87.79 0.5 83.29 0.5ZM83.29-6L83.29-6Q86.19-6 88.07-7.75 89.94-9.5 90.04-13.4L90.04-13.4Q90.14-15.6 90.14-17.53 90.14-19.45 90.04-21.6L90.04-21.6Q89.99-24.2 89.09-25.85 88.19-27.5 86.72-28.25 85.24-29 83.29-29L83.29-29Q81.39-29 79.89-28.25 78.39-27.5 77.49-25.85 76.59-24.2 76.49-21.6L76.49-21.6Q76.44-19.45 76.44-17.53 76.44-15.6 76.49-13.4L76.49-13.4Q76.64-9.5 78.49-7.75 80.34-6 83.29-6ZM118.44 0.5L118.44 0.5Q113.79 0.5 110.49-1.07 107.19-2.65 105.39-5.68 103.59-8.7 103.39-13.05L103.39-13.05Q103.34-15.1 103.34-17.45 103.34-19.8 103.39-21.95L103.39-21.95Q103.59-26.25 105.42-29.28 107.24-32.3 110.54-33.9 113.84-35.5 118.44-35.5L118.44-35.5Q121.84-35.5 124.57-34.65 127.29-33.8 129.29-32.2 131.29-30.6 132.42-28.45 133.54-26.3 133.59-23.65L133.59-23.65Q133.64-23.2 133.32-22.9 132.99-22.6 132.54-22.6L132.54-22.6 126.79-22.6Q126.19-22.6 125.84-22.88 125.49-23.15 125.29-23.85L125.29-23.85Q124.54-26.85 122.79-27.93 121.04-29 118.44-29L118.44-29Q115.39-29 113.59-27.3 111.79-25.6 111.64-21.7L111.64-21.7Q111.49-17.6 111.64-13.3L111.64-13.3Q111.79-9.4 113.59-7.7 115.39-6 118.44-6L118.44-6Q121.04-6 122.82-7.1 124.59-8.2 125.29-11.15L125.29-11.15Q125.49-11.85 125.84-12.13 126.19-12.4 126.79-12.4L126.79-12.4 132.54-12.4Q132.99-12.4 133.32-12.1 133.64-11.8 133.59-11.35L133.59-11.35Q133.54-8.7 132.42-6.55 131.29-4.4 129.29-2.8 127.29-1.2 124.57-0.35 121.84 0.5 118.44 0.5ZM145.89 0L140.39 0Q139.89 0 139.54-0.35 139.19-0.7 139.19-1.25L139.19-1.25 139.19-33.75Q139.19-34.3 139.54-34.65 139.89-35 140.39-35L140.39-35 153.69-35Q159.94-35 163.54-32.13 167.14-29.25 167.14-23.85L167.14-23.85Q167.14-20.2 165.39-17.75 163.64-15.3 160.69-14.1L160.69-14.1 167.79-1.6Q167.94-1.3 167.94-1.05L167.94-1.05Q167.94-0.65 167.62-0.33 167.29 0 166.89 0L166.89 0 161.29 0Q160.39 0 159.94-0.48 159.49-0.95 159.29-1.35L159.29-1.35 153.19-12.8 147.14-12.8 147.14-1.25Q147.14-0.7 146.79-0.35 146.44 0 145.89 0L145.89 0ZM147.14-28.75L147.14-19.15 153.59-19.15Q156.29-19.15 157.62-20.4 158.94-21.65 158.94-23.9L158.94-23.9Q158.94-26.15 157.64-27.45 156.34-28.75 153.59-28.75L153.59-28.75 147.14-28.75ZM176.49 0L171.24 0Q170.79 0 170.49-0.33 170.19-0.65 170.19-1.05L170.19-1.05Q170.19-1.3 170.24-1.5L170.24-1.5 182.14-33.65Q182.29-34.2 182.74-34.6 183.19-35 183.99-35L183.99-35 190.39-35Q191.19-35 191.64-34.6 192.09-34.2 192.29-33.65L192.29-33.65 204.14-1.5Q204.24-1.3 204.24-1.05L204.24-1.05Q204.24-0.65 203.91-0.33 203.59 0 203.14 0L203.14 0 197.89 0Q197.19 0 196.84-0.35 196.49-0.7 196.39-1L196.39-1 194.24-6.6 180.14-6.6 178.04-1Q177.89-0.7 177.56-0.35 177.24 0 176.49 0L176.49 0ZM187.19-27.4L182.04-13.05 192.34-13.05 187.19-27.4ZM215.09 0L209.69 0Q209.19 0 208.84-0.35 208.49-0.7 208.49-1.25L208.49-1.25 208.49-33.75Q208.49-34.3 208.84-34.65 209.19-35 209.69-35L209.69-35 232.04-35Q232.59-35 232.94-34.65 233.29-34.3 233.29-33.75L233.29-33.75 233.29-29.45Q233.29-28.95 232.94-28.6 232.59-28.25 232.04-28.25L232.04-28.25 216.34-28.25 216.34-19.8 231.04-19.8Q231.59-19.8 231.94-19.45 232.29-19.1 232.29-18.55L232.29-18.55 232.29-14.3Q232.29-13.8 231.94-13.45 231.59-13.1 231.04-13.1L231.04-13.1 216.34-13.1 216.34-1.25Q216.34-0.7 215.99-0.35 215.64 0 215.09 0L215.09 0ZM253.43 0L247.88 0Q247.33 0 246.98-0.35 246.63-0.7 246.63-1.25L246.63-1.25 246.63-28 237.53-28Q237.03-28 236.68-28.35 236.33-28.7 236.33-29.25L236.33-29.25 236.33-33.75Q236.33-34.3 236.68-34.65 237.03-35 237.53-35L237.53-35 263.73-35Q264.28-35 264.63-34.65 264.98-34.3 264.98-33.75L264.98-33.75 264.98-29.25Q264.98-28.7 264.63-28.35 264.28-28 263.73-28L263.73-28 254.68-28 254.68-1.25Q254.68-0.7 254.33-0.35 253.98 0 253.43 0L253.43 0Z" opacity="1" transform="matrix(1,0,0,1,0,0)" fill="#ffffff" class="wordmark-text-0" data-fill-palette-color="primary" id="text-0"></path></svg></g></svg></g></svg></g></svg></g></svg></g></svg></g><g mask="url(#bfeac2e0-d131-446e-98b5-4add0f85e46b)"><g transform="matrix(3.1844155844155844, 0, 0, 3.1844155844155844, 58.60103896103894, 1)"><svg xmlns="http://www.w3.org/2000/svg" xmlns:xlink="http://www.w3.org/1999/xlink" version="1.1" x="0" y="0" viewBox="6.3 11.5 87.4 77" style="enable-background:new 0 0 100 100;" xml:space="preserve" height="77" width="87.4" class="icon-none" data-fill-palette-color="accent" id="none"><path d="M72.3 12.3L72.3 12.3 72.3 12.3l-0.4-0.8H28.2L6.3 50l21.8 38.5h43.7L93.7 50 72.3 12.3zM33.3 25.3L9.9 47.7l18.6-32.8L33.3 25.3zM70.7 14.8l6.4 35.7L36.9 25.8 70.7 14.8zM35.5 27.3l41 25.2-41 23.3V27.3zM77 54.5l-7.2 30.8-32.6-8.1L77 54.5zM33.5 75L9.9 50.5l23.6-22.7V75zM33.2 77.6l-4.6 7.7L11.5 55.1 33.2 77.6zM35 78.6l31.4 7.9H30.2L35 78.6zM79.3 53.3l11.6-2.5L72.1 84 79.3 53.3zM90.7 48.9l-11.4 2.5-5.9-33.1L90.7 48.9zM35 24.3l-5-10.8h38.2L35 24.3z" fill="#ffffff" data-fill-palette-color="accent"></path></svg></g></g></svg></g><defs></defs></svg><rect width="395.52" height="247.2" fill="none" stroke="none" visibility="hidden"></rect></g></svg></g></svg>